<svg width="67" height="67" viewBox="0 0 67 67" fill="none" xmlns="http://www.w3.org/2000/svg">
<g filter="url(#filter0_d_4_61)">
<path fill-rule="evenodd" clip-rule="evenodd" d="M34.0982 45.4643C35.4203 45.4643 36.4911 44.3935 36.4911 43.0714H31.7054C31.7054 44.3935 32.7762 45.4643 34.0982 45.4643ZM34.0982 21.5357C38.2151 21.5357 42.332 25.7579 42.4732 29.5482V33.8984C42.4732 33.8984 44.8661 35.2946 44.8661 37.0953C44.8661 39.5396 43.2629 40.6786 41.2852 40.6786H26.9101C24.9479 40.6786 23.3292 39.4821 23.3292 37.0953V36.4863C23.3292 35.8258 23.7898 35.0266 24.3581 34.6952L25.722 33.8996V29.5494C25.8632 25.7591 29.9801 21.5369 34.097 21.5369L34.0982 21.5357ZM34.0982 23.9286C31.3739 23.9286 28.2118 27.0261 28.1161 29.5482V35.2731L26.9292 35.9658L25.5653 36.7615C25.7316 36.6645 25.7232 36.6777 25.7232 36.4851V37.0941C25.7232 37.9663 26.069 38.2845 26.9113 38.2845H41.2864C42.1657 38.2845 42.4744 38.0033 42.4744 37.0941C42.4744 37.0917 42.3368 36.8572 42.0138 36.5473C41.7219 36.2673 41.418 36.052 41.2684 35.9646L40.0816 35.2719V33.8972L40.0828 29.6355C39.9858 27.0237 36.8237 23.9274 34.0994 23.9274L34.0982 23.9286Z" fill="white"/>
</g>
<defs>
<filter id="filter0_d_4_61" x="-262.385" y="-249.893" width="592.966" height="595.357" filterUnits="userSpaceOnUse" color-interpolation-filters="sRGB">
<feFlood flood-opacity="0" result="BackgroundImageFix"/>
<feColorMatrix in="SourceAlpha" type="matrix" values="0 0 0 0 0 0 0 0 0 0 0 0 0 0 0 0 0 0 127 0" result="hardAlpha"/>
<feOffset dy="14.2857"/>
<feGaussianBlur stdDeviation="142.857"/>
<feColorMatrix type="matrix" values="0 0 0 0 0 0 0 0 0 0 0 0 0 0 0 0 0 0 0.1 0"/>
<feBlend mode="normal" in2="BackgroundImageFix" result="effect1_dropShadow_4_61"/>
<feBlend mode="normal" in="SourceGraphic" in2="effect1_dropShadow_4_61" result="shape"/>
</filter>
</defs>
</svg>
